<svg width="1026" height="843" viewBox="0 0 1026 843" fill="none" xmlns="http://www.w3.org/2000/svg">
<g filter="url(#filter0_d_91_33)">
<path d="M-63 493.88C-117.457 441.995 -151 371.131 -151 293C-151 133.942 -11.9844 5 159.5 5C298.83 5 416.725 90.1202 456.039 207.354C460.661 207.119 465.316 207 470 207C610.28 207 724 313.78 724 445.5C724 458.259 722.933 470.784 720.878 483H746.3C834.533 484.665 1011 535.636 1011 726.202C1011 821.282 888.098 819.241 784.982 817.528C771.655 817.307 758.658 817.091 746.3 817.091H-63V493.88Z" fill="#D3CFE3"/>
</g>
<defs>
<filter id="filter0_d_91_33" x="-166" y="0" width="1192" height="843" filterUnits="userSpaceOnUse" color-interpolation-filters="sRGB">
<feFlood flood-opacity="0" result="BackgroundImageFix"/>
<feColorMatrix in="SourceAlpha" type="matrix" values="0 0 0 0 0 0 0 0 0 0 0 0 0 0 0 0 0 0 127 0" result="hardAlpha"/>
<feOffset dy="10"/>
<feGaussianBlur stdDeviation="7.5"/>
<feComposite in2="hardAlpha" operator="out"/>
<feColorMatrix type="matrix" values="0 0 0 0 0.0901961 0 0 0 0 0.0509804 0 0 0 0 0.172549 0 0 0 0.7 0"/>
<feBlend mode="normal" in2="BackgroundImageFix" result="effect1_dropShadow_91_33"/>
<feBlend mode="normal" in="SourceGraphic" in2="effect1_dropShadow_91_33" result="shape"/>
</filter>
</defs>
</svg>
